<?xml version="1.0" encoding="utf-8"?>
<svg viewBox="0 0 500 500" xmlns="http://www.w3.org/2000/svg">
  <g transform="matrix(1, 0, 0, 1, -55.882221, -63.599951)">
    <g>
      <path d="M363.232,271.105c-3.463-2.757-8.508-2.183-11.264,1.281c-2.885,3.626-6.016,7.132-9.306,10.42 c-6.794,6.795-14.348,12.765-22.451,17.746c-3.772,2.317-4.951,7.256-2.633,11.027c1.514,2.464,4.144,3.82,6.837,3.82 c1.432,0,2.881-0.384,4.19-1.188c9.17-5.636,17.714-12.387,25.394-20.067c3.717-3.716,7.252-7.676,10.514-11.774 C367.272,278.906,366.698,273.863,363.232,271.105z" style="fill-opacity: 0.55;"/>
    </g>
  </g>
  <g transform="matrix(1, 0, 0, 1, -55.882221, -63.599951)">
    <g>
      <path d="M386.405,188.126c-4.428,0-8.017,3.589-8.017,8.017c0,16.794-3.265,33.003-9.706,48.174 c-1.729,4.076,0.172,8.782,4.248,10.513c1.023,0.434,2.084,0.639,3.13,0.639c3.12,0,6.086-1.833,7.382-4.886 c7.286-17.164,10.98-35.481,10.98-54.44C394.422,191.715,390.833,188.126,386.405,188.126z" style="fill-opacity: 0.55;"/>
    </g>
  </g>
  <g transform="matrix(1, 0, 0, 1, -55.882221, -63.599951)">
    <g>
      <path d="M 439.85 175.299 C 439.85 175.299 437.594 175.326 436.479 175.38 C 435.358 175.433 434.241 175.513 433.127 175.619 C 430.9 175.829 429.48 176.035 427.658 176.347 L 426.489 176.547 L 426.489 175.361 L 426.489 162.403 L 426.489 161.403 L 427.489 161.403 L 444.126 161.403 C 446.356 161.399 448.349 160.501 449.795 159.055 C 451.241 157.609 452.139 155.598 452.143 153.368 L 452.143 106.355 C 452.139 104.125 451.266 102.106 449.796 100.686 C 448.375 99.215 446.339 98.342 444.108 98.338 L 418.473 98.338 L 93.528 98.338 L 67.875 98.338 C 65.645 98.342 63.652 99.24 62.206 100.686 C 60.76 102.132 59.862 104.143 59.858 106.373 L 59.858 153.386 C 59.862 155.616 60.735 157.635 62.205 159.055 C 63.626 160.526 65.662 161.399 67.893 161.403 L 84.512 161.403 L 85.512 161.403 L 85.512 162.403 L 85.512 175.362 L 85.512 176.548 L 84.343 176.348 C 80.319 175.657 76.656 175.299 72.151 175.299 C 52.259 175.299 34.221 183.391 21.157 196.455 C 8.093 209.519 0.001 227.557 0.001 247.449 C 0.001 267.341 8.093 285.379 21.157 298.443 C 34.221 311.507 52.259 319.599 72.151 319.599 C 90.445 319.599 107.059 313 120.206 301.23 L 121.001 300.518 L 121.659 301.359 C 147.739 334.672 184.366 356.524 225.783 363.934 L 226.606 364.081 L 226.606 364.918 L 226.606 433.524 L 226.606 434.361 L 225.782 434.508 C 187.753 441.299 153.232 460.648 127.355 490.145 C 125.272 492.52 124.788 495.866 126.079 498.739 C 127.39 501.604 130.248 503.447 133.406 503.447 L 378.619 503.447 C 381.778 503.447 384.617 501.616 385.923 498.739 C 387.214 495.866 386.713 492.502 384.631 490.128 C 358.754 460.63 324.25 441.298 286.22 434.508 L 285.396 434.361 L 285.396 433.524 L 285.396 364.918 L 285.396 364.081 L 286.219 363.934 C 327.628 356.529 364.255 334.676 390.343 301.359 L 391.001 300.518 L 391.796 301.23 C 404.943 313.002 421.557 319.599 439.851 319.599 C 459.743 319.599 477.781 311.507 490.845 298.443 C 503.909 285.379 512.001 267.341 512.001 247.449 C 512.001 227.557 503.932 209.496 490.845 196.455 C 477.804 183.368 459.742 175.3 439.848 175.299 M 75.891 145.37 L 75.891 115.372 L 75.891 114.372 L 76.891 114.372 L 93.528 114.372 L 418.472 114.372 L 435.109 114.372 L 436.109 114.372 L 436.109 115.372 L 436.109 144.37 L 436.109 145.37 L 435.109 145.37 L 418.472 145.37 L 93.528 145.37 L 75.891 145.37 M 439.842 225.537 C 445.891 225.538 451.372 227.997 455.337 231.962 C 459.305 235.93 461.762 241.408 461.762 247.449 C 461.762 253.49 459.305 258.968 455.337 262.936 C 451.369 266.904 445.891 269.361 439.85 269.361 C 434.111 269.361 428.93 267.169 425.02 263.611 C 421.151 260.011 418.612 255.159 418.075 249.602 L 418.056 249.402 L 418.12 249.205 C 419.665 244.439 420.97 239.718 422.112 234.734 L 422.158 234.534 L 422.277 234.372 C 424.351 231.535 426.9 229.462 429.912 227.914 C 431.427 227.147 433.03 226.552 434.696 226.148 C 435.528 225.948 436.377 225.795 437.238 225.692 C 438.113 225.59 439.85 225.537 439.85 225.537 M 93.943 249.39 C 93.449 255.04 90.849 260.012 86.981 263.612 C 83.07 267.17 77.889 269.362 72.15 269.362 C 66.108 269.362 60.631 266.905 56.663 262.937 C 52.695 258.969 50.238 253.491 50.238 247.45 C 50.238 241.409 52.695 235.931 56.663 231.963 C 60.631 227.995 66.109 225.538 72.15 225.538 C 79.189 225.538 85.583 228.815 89.718 234.367 L 89.839 234.529 L 89.886 234.734 C 90.451 237.195 91.05 239.573 91.735 242.053 C 92.076 243.293 92.432 244.525 92.801 245.751 C 93.167 246.972 93.942 249.398 93.942 249.398 M 72.153 303.566 C 56.68 303.566 42.671 297.249 32.488 287.111 C 22.35 276.926 16.033 262.921 16.033 247.449 C 16.033 231.977 22.35 217.972 32.488 207.787 C 42.673 197.648 56.679 191.332 72.15 191.332 C 76.677 191.332 80.63 191.822 84.736 192.768 L 85.511 192.946 L 85.511 193.742 L 85.511 196.142 C 85.511 201.511 85.728 205.817 86.135 210.644 L 86.266 212.184 L 84.808 211.672 C 80.778 210.254 77.075 209.503 72.15 209.503 C 61.688 209.503 52.178 213.736 45.33 220.629 C 38.437 227.477 34.204 236.987 34.204 247.449 C 34.204 257.911 38.437 267.421 45.33 274.269 C 52.178 281.162 61.688 285.395 72.15 285.395 C 84.536 285.395 94.463 280.086 101.437 271.646 L 102.419 270.459 L 103.103 271.843 C 105.705 277.114 108.069 281.406 111.283 286.551 L 111.705 287.227 L 111.142 287.789 C 105.89 293.015 100.304 296.531 93.609 299.313 C 90.253 300.7 86.758 301.763 83.167 302.482 C 81.372 302.839 79.553 303.11 77.715 303.292 C 76.795 303.383 75.872 303.451 74.945 303.497 C 74.01 303.543 72.151 303.566 72.151 303.566 M 359.429 487.416 L 155.215 487.416 L 152.533 487.416 L 154.56 485.661 C 177.374 465.902 204.637 453.265 235.648 449.203 C 237.657 448.936 239.431 447.972 240.648 446.538 C 241.912 445.145 242.636 443.279 242.639 441.251 L 242.639 367.632 L 242.639 366.632 L 243.639 366.632 L 268.362 366.632 L 269.362 366.632 L 269.362 367.632 L 269.362 441.235 C 269.365 443.262 270.09 445.146 271.353 446.539 C 272.57 447.973 274.326 448.934 276.336 449.2 C 291.842 451.231 306.82 455.6 320.823 462.046 C 327.823 465.272 334.578 469.019 341.033 473.257 C 344.259 475.377 347.41 477.618 350.479 479.979 C 352.013 481.16 353.527 482.37 355.018 483.61 C 355.765 484.23 356.505 484.857 357.241 485.491 C 357.978 486.128 359.43 487.416 359.43 487.416 M 383.638 283.421 C 383.607 283.454 383.556 283.533 383.532 283.585 L 381.754 282.67 L 381.845 282.493 L 381.877 282.431 L 381.917 282.373 L 381.929 282.356 L 383.572 283.497 C 354.826 325.514 307.136 350.598 256.001 350.598 C 204.866 350.598 157.205 325.536 128.457 283.537 C 128.419 283.49 128.404 283.47 128.386 283.444 C 128.373 283.426 128.286 283.289 128.247 283.161 C 128.221 283.078 128.187 282.781 128.24 282.594 C 128.29 282.42 128.554 282.075 128.749 281.976 C 128.917 281.89 129.251 281.86 129.377 281.882 C 129.569 281.917 129.799 282.062 129.845 282.101 C 129.879 282.129 129.923 282.173 129.935 282.187 C 129.952 282.204 129.974 282.23 129.982 282.24 C 129.993 282.253 130.011 282.276 130.031 282.301 L 128.422 283.487 C 120.456 271.841 114.141 259.188 109.651 245.878 C 107.877 240.615 106.358 235.115 105.137 229.529 L 107.091 229.103 L 107.47 230.84 L 105.519 231.281 L 105.163 229.758 C 105.111 229.535 105.097 229.419 105.135 229.524 L 106.923 228.63 L 106.979 228.742 L 107.035 228.852 L 107.061 228.973 L 107.088 229.095 L 105.135 229.524 C 102.754 218.605 101.546 207.374 101.546 196.142 L 101.546 186.979 L 101.546 162.403 L 101.546 161.403 L 102.546 161.403 L 409.456 161.403 L 410.456 161.403 L 410.456 162.403 L 410.456 186.979 L 410.456 196.142 C 410.456 207.373 409.248 218.605 406.866 229.524 L 406.559 230.929 L 404.609 230.484 L 404.893 229.292 C 404.92 229.182 404.946 229.072 404.965 228.99 C 404.975 228.949 404.982 228.916 404.988 228.893 C 404.99 228.882 404.992 228.875 404.993 228.87 C 404.993 228.869 404.993 228.871 404.992 228.873 C 404.992 228.876 404.989 228.887 404.988 228.894 C 404.986 228.902 404.981 228.932 404.978 228.953 C 404.975 228.981 404.966 229.106 404.977 229.201 C 404.985 229.272 405.064 229.478 405.123 229.615 C 405.212 229.721 405.455 229.961 405.634 230.025 C 405.828 230.094 406.215 230.038 406.377 229.997 C 406.582 229.827 406.826 229.594 406.864 229.53 L 406.863 229.532 L 406.864 229.529 C 405.643 235.115 404.124 240.614 402.35 245.876 C 400.104 252.533 397.402 259.023 394.267 265.307 C 392.699 268.448 391.022 271.538 389.24 274.57 C 388.349 276.085 387.432 277.586 386.487 279.073 C 386.016 279.817 385.538 280.555 385.052 281.291 C 384.567 282.028 383.578 283.487 383.578 283.487 M 439.853 303.566 C 424.894 303.566 411.279 297.881 400.867 287.799 L 400.288 287.238 L 400.716 286.553 C 403.973 281.333 406.334 277.045 408.897 271.844 L 409.58 270.458 L 410.562 271.646 C 417.537 280.08 427.463 285.395 439.849 285.395 C 450.311 285.395 459.821 281.162 466.669 274.269 C 473.562 267.421 477.795 257.911 477.795 247.449 C 477.795 236.987 473.562 227.477 466.669 220.629 C 459.821 213.736 450.311 209.503 439.849 209.503 C 434.923 209.503 431.22 210.252 427.192 211.671 L 425.735 212.185 L 425.865 210.644 C 426.271 205.817 426.488 201.511 426.488 196.142 L 426.488 193.741 L 426.488 192.945 L 427.263 192.767 C 431.37 191.82 435.322 191.332 439.849 191.332 C 455.32 191.332 469.349 197.625 479.511 207.787 C 489.672 217.948 495.966 231.977 495.966 247.449 C 495.966 262.921 489.65 276.927 479.511 287.111 C 474.425 292.186 468.379 296.297 461.672 299.149 C 458.316 300.568 454.794 301.673 451.145 302.424 C 449.32 302.798 447.464 303.084 445.58 303.276 C 444.637 303.372 443.688 303.444 442.734 303.493 C 441.772 303.541 439.85 303.566 439.85 303.566" style="stroke-opacity: 0.97; fill-opacity: 0.55;"/>
    </g>
  </g>
  <g transform="matrix(1, 0, 0, 1, -55.882221, -63.599951)">
    <g>
      <path d="M331.978,231.981c-1.123-3.218-4.159-5.375-7.569-5.375h-45.692l-15.183-41.754c-1.152-3.168-4.163-5.277-7.535-5.277 s-6.382,2.109-7.535,5.277l-15.183,41.754h-45.692c-3.409,0-6.445,2.157-7.569,5.375c-1.123,3.219-0.088,6.797,2.582,8.918 l38.617,30.68l-11.435,41.933c-0.909,3.329,0.416,6.866,3.287,8.779c2.871,1.915,6.646,1.778,9.369-0.342l33.558-26.1l33.559,26.1 c1.443,1.122,3.181,1.689,4.922,1.689c1.546,0,3.096-0.446,4.445-1.347c2.872-1.914,4.195-5.45,3.287-8.779l-11.435-41.933 l38.617-30.68C332.066,238.779,333.101,235.2,331.978,231.981z M276.667,262.313c-2.511,1.995-3.591,5.293-2.747,8.386 l6.498,23.829l-19.496-15.163c-1.448-1.126-3.185-1.689-4.922-1.689c-1.737,0-3.474,0.563-4.922,1.689l-19.496,15.163 l6.498-23.829c0.844-3.093-0.237-6.392-2.747-8.387l-24.764-19.674h28.329c3.37,0,6.382-2.109,7.535-5.277L256,211.049 l9.568,26.313c1.152,3.168,4.163,5.277,7.535,5.277h28.329L276.667,262.313z" style="fill-opacity: 0.55;"/>
    </g>
  </g>
  <g transform="matrix(1, 0, 0, 1, -55.882221, -63.599951)">
    <g>
      <path d="M277.378,29.93h-13.361V16.568c0-4.427-3.588-8.017-8.017-8.017c-4.428,0-8.017,3.589-8.017,8.017V29.93h-13.361 c-4.428,0-8.017,3.589-8.017,8.017c0,4.427,3.588,8.017,8.017,8.017h13.361v13.361c0,4.427,3.588,8.017,8.017,8.017 c4.428,0,8.017-3.589,8.017-8.017V45.963h13.361c4.428,0,8.017-3.589,8.017-8.017C285.395,33.519,281.806,29.93,277.378,29.93z" style="fill-opacity: 0.55;"/>
    </g>
  </g>
  <g transform="matrix(1, 0, 0, 1, -55.882221, -63.599951)">
    <g>
      <path d="M397.094,29.93h-13.361V16.568c0-4.427-3.588-8.017-8.017-8.017c-4.428,0-8.017,3.589-8.017,8.017V29.93h-13.361 c-4.428,0-8.017,3.589-8.017,8.017c0,4.427,3.588,8.017,8.017,8.017h13.361v13.361c0,4.427,3.588,8.017,8.017,8.017 c4.428,0,8.017-3.589,8.017-8.017V45.963h13.361c4.428,0,8.017-3.589,8.017-8.017C405.111,33.519,401.522,29.93,397.094,29.93z" style="fill-opacity: 0.55;"/>
    </g>
  </g>
  <g transform="matrix(1, 0, 0, 1, -55.882221, -63.599951)">
    <g>
      <path d="M166.213,29.93h-13.361V16.568c0-4.427-3.588-8.017-8.017-8.017c-4.428,0-8.017,3.589-8.017,8.017V29.93h-13.361 c-4.428,0-8.017,3.589-8.017,8.017c0,4.427,3.588,8.017,8.017,8.017h13.361v13.361c0,4.427,3.588,8.017,8.017,8.017 c4.428,0,8.017-3.589,8.017-8.017V45.963h13.361c4.428,0,8.017-3.589,8.017-8.017C174.23,33.519,170.641,29.93,166.213,29.93z" style="fill-opacity: 0.55;"/>
    </g>
  </g>
  <g transform="matrix(1, 0, 0, 1, -55.882221, -63.599951)"/>
  <g transform="matrix(1, 0, 0, 1, -55.882221, -63.599951)"/>
  <g transform="matrix(1, 0, 0, 1, -55.882221, -63.599951)"/>
  <g transform="matrix(1, 0, 0, 1, -55.882221, -63.599951)"/>
  <g transform="matrix(1, 0, 0, 1, -55.882221, -63.599951)"/>
  <g transform="matrix(1, 0, 0, 1, -55.882221, -63.599951)"/>
  <g transform="matrix(1, 0, 0, 1, -55.882221, -63.599951)"/>
  <g transform="matrix(1, 0, 0, 1, -55.882221, -63.599951)"/>
  <g transform="matrix(1, 0, 0, 1, -55.882221, -63.599951)"/>
  <g transform="matrix(1, 0, 0, 1, -55.882221, -63.599951)"/>
  <g transform="matrix(1, 0, 0, 1, -55.882221, -63.599951)"/>
  <g transform="matrix(1, 0, 0, 1, -55.882221, -63.599951)"/>
  <g transform="matrix(1, 0, 0, 1, -55.882221, -63.599951)"/>
  <g transform="matrix(1, 0, 0, 1, -55.882221, -63.599951)"/>
  <g transform="matrix(1, 0, 0, 1, -55.882221, -63.599951)"/>
</svg>